<svg viewBox="0 0 500 500" xmlns="http://www.w3.org/2000/svg" fill-rule="evenodd" clip-rule="evenodd" stroke-linecap="round" stroke-linejoin="round" stroke-miterlimit="1.5">
  <path d="M181 293c-16 4-3 29-19 36-14 7-24 22-38 30-20 11-38 15-57 29-9 7-38 3-39 14 45-7 69 13 96 17 25 3 43 2 64-6 72-28 42-90 41-109-14-2-34-15-48-11zM197 61l5 59c29-9 74-8 121-7-2-20 0-40-6-63-22-11-99-9-120 11z" fill="#0c0c0c"/>
  <clipPath id="a">
    <path d="M197 61l5 59c29-9 74-8 121-7-2-20 0-40-6-63-22-11-99-9-120 11z"/>
  </clipPath>
  <g clip-path="url(#a)">
    <path d="M297 26l-18-2c7 33 11 67 10 104l18 2c3-35 0-70-10-104z" fill="#282c3f"/>
  </g>
  <path d="M197 61l5 59c29-9 74-8 121-7-2-20 0-40-6-63-22-11-99-9-120 11z" fill="none" stroke="#13172b" stroke-width="4.8"/>
  <path d="M262 94c120-27 161-15 170 16 4 18-73 50-167 56s-170-8-172-24c-1-12 17-35 61-38 36-3 66 0 108-10z" fill="#0c0c0c" stroke="#13172b" stroke-width="4.8"/>
  <path d="M184 186c-34-4-24-16-56 0-25 12-34 8-48-2" fill="none" stroke="#0c0c0c" stroke-width="16" stroke-linecap="butt"/>
  <path d="M182 188c-45-7-39 19-53 28-17 12-48 9-59 4" fill="none" stroke="#0c0c0c" stroke-width="16" stroke-linecap="butt"/>
  <g fill-rule="nonzero">
    <path d="M387 342l-1 5 2 4 3 3a78 78 0 009 6l4 1h3l2-3v-4l-2-2-4-2-4-3-3-4-3-4h-3l-3 3z" fill="#e1d6b9"/>
    <path d="M393 338l3 3 4 5 5 3 4 2 2 3v5l-2 3-4 1-5-2-5-2a69 69 0 01-8-7l-1-2c-1-1 0-3 1-2l1 3 4 3a73 73 0 008 6l4 1 3-1 2-2v-4l-2-2-4-2-4-3-3-4a19 19 0 00-3-3l-1-1v-1h1zM326 417c4 7 3 14 3 19 1 6 3 9 5 12s4 4 6 5c1 1 3 0 5-2s3-5 3-7l-2-10-5-13c-3-5-6-11-12-16-6-6-13-10-19-14a270 270 0 00-25-12h-5l3 5 10 7 17 11c7 4 13 9 16 15z" fill="#394655"/>
    <path d="M328 416c3 5 3 11 3 16s2 9 3 12l5 6c2 1 3 0 5-1 1-2 2-4 1-7l-2-9-4-12c-3-5-6-10-11-15l-15-11a211 211 0 00-23-12h-3l3 4 9 6 15 9c5 4 10 8 14 14z" fill="#e1d6b9"/>
    <path d="M198 344c-7-2-11-6-16-9-4-3-8-4-12-4l-7-1-2 4 4 5 9 5 12 5a89 89 0 0042 2 309 309 0 0026-4l2-2-4-2-13 1-19 2c-7 0-15 0-22-2z" fill="#394655"/>
    <path d="M199 346c-6-1-11-5-15-8s-7-4-11-5l-7-1c-2 0-2 1-2 3s1 3 4 4l8 4 12 5a82 82 0 0036 3 243 243 0 0025-5l-4-1-11 1-17 1c-6 1-12 0-18-1z" fill="#e1d6b9"/>
    <g>
      <path d="M409 307c-5 43-14 84-46 112-41 35-115 40-168 6-15-9-27-36-29-54-4-36 11-61 7-95-2-27-16-49-15-81 1-21 6-46 23-59 21-18 46-28 74-27 40 1 84 4 117 30 24 18 38 48 41 80 2 32-1 61-4 88z" fill="#394655"/>
      <path d="M399 346c-8 39-32 76-74 90-39 13-90 10-128-15-15-10-26-36-27-53-4-35 10-60 7-92-3-27-16-47-15-78 0-21 5-46 21-59 20-16 43-27 70-26 42 0 89 3 123 33 30 28 35 76 33 114-1 32-4 60-10 86z" fill="#96d6ff"/>
    </g>
    <g>
      <path d="M240 432l-5 1c-2 0-3 1-3 3l-3 4a128 128 0 00-3 10l-1 4 1 3 4 2h3l3-3 1-4 1-5 3-5 3-4v-4l-4-2z" fill="#e1d6b9"/>
      <path d="M245 438l-2 4-3 6-2 5-2 5-3 3h-4l-4-2-1-4v-5l2-6a90 90 0 015-10l1-1c1-1 3 0 2 1l-2 2-2 4-2 4-2 5v4l1 3 3 1h3l1-3 2-4 2-3c0-2 2-3 3-5a18 18 0 003-4v-1h1v1z" fill="#394655"/>
    </g>
  </g>
  <g opacity=".1">
    <ellipse cx="347.1" cy="250.3" rx="18" ry="16.5"/>
    <path d="M161 112c-5 0-9 1-13 3s-8 6-9 10c-2 5 0 12 4 17 3 4 6 6 12 8l8 4c4 3 8 4 11 5l2 1-2 1h-4c-2 0-2 0-3 4-3 9-5 21-5 34 0 14 2 23 8 44l7 30c1 13 1 22-3 46s-4 26-4 38c0 11 0 16 2 24 5 15 11 27 20 35 6 6 18 13 32 19h6c1-2 2-3 7-3-31-27-27-65-20-87 6-17 25-42 25-42l-18-2s-6-34-10-48c-18-53-24-96 3-126 5-6 10-9 16-12l-21 6-15 9v3c1 3 0 4-2 4l-1-3c-1-4-3-7-7-12a33 33 0 00-26-10zm1 19l5 1c3 1 10 6 11 8 2 3 1 3-3 0l-3-2-4 3-5 4c-1 0 0-2 3-4 3-3 4-5 3-5l-4-2-6-1c-2 1-3 0-1-1l4-1zm83 307l-1 2 5 1-4-3z" fill-rule="nonzero"/>
    <path d="M245 345c0 10-1 12 2 18 3 4 3 10 10 8l10-6c8-2 109-61 130-82 2-3 5-4 5-4l-9 2c-39 27-82 47-129 62 0 0-19-8-19 2z"/>
    <path d="M236 303l-4 12c2 0 8-5 14-6 61-3 100 0 149-4h5c4 1 6 12 7 11 1-11-2-15-5-18l-166 5z"/>
  </g>
  <path d="M210 199c1 8 3 16 6 23s8 13 13 19c6 5 13 10 20 13 7 4 15 6 23 6a52 52 0 0054-34 63 63 0 00-15-66 59 59 0 00-42-17 64 64 0 00-42 17c-5 5-10 11-12 18-3 6-5 14-5 21z" fill="#394655" fill-rule="nonzero"/>
  <path d="M214 198a63 63 0 0035 53c7 3 15 6 23 6a52 52 0 0039-14c5-5 9-11 12-18a57 57 0 00-53-78 61 61 0 00-39 15 47 47 0 00-16 36z" fill="#fff" fill-rule="nonzero"/>
  <circle cx="257.2" cy="198.4" r="16.2" fill="#394455"/>
  <circle cx="264.4" cy="191" r="8" fill="#fff"/>
  <g>
    <path d="M363 169c0 7 1 13 3 20a271 271 0 0014 39l9 14c4 3 8 5 12 5 5 1 10 1 15-1a53 53 0 0024-26 57 57 0 001-39c-2-7-7-14-12-19a55 55 0 00-34-18c-6-1-11 0-16 1-5 2-9 5-12 9s-4 9-4 15z" fill="#394655" fill-rule="nonzero"/>
    <path d="M365 170l2 19a165 165 0 0015 37c2 5 6 10 9 13 4 3 7 4 11 5 4 0 9 1 14-1l12-9 9-16a54 54 0 000-36c-2-6-7-13-11-18a52 52 0 00-31-17c-5-1-10 0-15 1-4 2-8 5-10 8-3 4-4 9-5 14z" fill="#fff" fill-rule="nonzero"/>
    <path d="M412 185a12 12 0 10-8 24 12 12 0 008-24z" fill="#394455"/>
    <path d="M415 187a6 6 0 10-4 11 6 6 0 004-11z" fill="#fff"/>
  </g>
  <g fill-rule="nonzero">
    <path d="M355 246h-8l-2 1-1 3-1 6-1 5v3l2 1h9l3-1 2-3v-5l1-6-1-3-3-1z" fill="#2e3436"/>
    <path d="M354 248h-6l-2 1-1 2-1 5-1 4 1 2 2 1h6l3-1 1-2v-4l1-5-1-2-2-1z" fill="#fff"/>
    <path d="M331 242l3 4 6 4a35 35 0 0017 3l8-2 6-3 3-4 1-4c-1-2-1-4-3-5l-4-4-7-3-8-1a36 36 0 00-16 5l-5 4-1 6z" fill="#394655"/>
    <path d="M337 241c0 2 1 3 3 4l5 3a26 26 0 0019 1l4-3 3-3v-4l-2-3-3-4-5-2h-7a28 28 0 00-12 3l-4 4-1 4z" fill="#e1d0cb"/>
    <path d="M345 232l2 3 4 2a25 25 0 0010 1l3-1 3-2 1-2 1-3-2-3-2-2-4-1-5-1-5 1-3 2-3 3v3z" fill="#394655"/>
  </g>
  <g>
    <path d="M174 290c-8 17-13 23-25 36-9 9-23 19-35 31-10 11-21 17-51 26-10 3-35 5-41 30 20-14 47-18 74-23 22-4 33-29 50-37 31-13 46-16 60-25 6-5 16-11 22-17 8-10 23-5 29-8-57-1-73-5-83-13z" fill="#13172b"/>
    <path d="M352 299l59-4 2 2c6 16-10 49-10 49 0-3 11-36-5-43-13-7-31-2-46-4z" fill="#121629"/>
    <path d="M173 291c-7 16-12 22-24 35-9 9-23 19-35 31-10 11-21 17-51 26-9 2-30 5-38 22l7-7c4-5 55-6 67-13 8-5 29-27 38-34 10-6 38-17 46-18 24-5 38-31 38-31l-6-1c-21-2-31-5-38-9l-4-1z" fill="#0c0c0c"/>
    <path d="M174 286l10 5c12 4 22 7 35 8l47 1a2862 2862 0 00137-6c3-1 6-5 9-4 2 1 2 3 2 5 2 4 0 5-4 6l-48 3c-38 2-76 2-115 2-13-1-27 0-41-2-10-1-21-3-31-7-3-1-6-2-7-6l1-2 1-2 4-1z" fill="#13172b"/>
    <path d="M170 287l-1 2-1 2c1 4 4 5 7 6 10 4 21 6 31 7 14 2 28 1 41 2 39 0 77 0 115-2l48-3c4-1 6-2 4-6v-1c0 4-5 4-10 5-26 5-54 3-82 3-34 1-74 5-108-1-14-2-35-8-44-14z" fill="#0c0c0c"/>
  </g>
  <g>
    <path d="M403 262l-126 88-6-10 130-81c4-2 5-2 2 3z" fill="#d0d0d0" fill-rule="nonzero"/>
    <clipPath id="b">
      <path d="M403 262l-126 88-6-10 130-81c4-2 5-2 2 3z" clip-rule="nonzero"/>
    </clipPath>
    <g clip-path="url(#b)">
      <path d="M238 371l178-119-6 11-165 112-7-4z" fill="#5a5a5a"/>
    </g>
    <path d="M403 262l-126 88-6-10 130-81c4-2 5-2 2 3z" fill="none" stroke="#2b2b2b" stroke-linecap="butt" stroke-miterlimit="1.4"/>
    <path d="M273 347l-20 13-2-2 20-13 2 2z" fill="#5a5a5a" fill-rule="nonzero" stroke="#2b2b2b" stroke-width=".6" stroke-linecap="butt" stroke-miterlimit="1.4"/>
  </g>
  <g fill-rule="nonzero">
    <path d="M250 335l-3 4 1 4 2 4a128 128 0 007 9l3 3 3 1 4-2 1-4-1-3-2-3-3-4-3-5-2-5-3-2-4 3z" fill="#e1d6b9"/>
    <path d="M257 333l3 4 3 6 3 4 3 4 1 4-2 4c-1 2-2 2-4 2h-4l-4-3-4-5a89 89 0 01-5-10l-1-1 2-2v3l3 4a124 124 0 006 9l3 2 3 1 3-2 2-3-1-3-2-3-4-4-2-5a26 26 0 00-3-5c-1-1 0-2 1-1z" fill="#394655"/>
  </g>
  <g>
    <path d="M264 345h-1l-10 4c-3 2-4 7 0 8v2c-4 0-6-3-6-7 0-2 2-4 5-6l11-3 1 2z" fill="#5a5a5a" fill-rule="nonzero"/>
    <clipPath id="c">
      <path d="M264 345h-1l-10 4c-3 2-4 7 0 8v2c-4 0-6-3-6-7 0-2 2-4 5-6l11-3 1 2z" clip-rule="nonzero"/>
    </clipPath>
    <g clip-path="url(#c)">
      <path d="M249 357c-2-4-1-9 5-11 8-2 15-1 15-1l-3-7-24 7 2 11s9 8 8 4l-3-3z" fill="#d0d0d0"/>
    </g>
    <path d="M264 345h-1l-10 4c-3 2-4 7 0 8v2c-4 0-6-3-6-7 0-2 2-4 5-6l11-3h0l1 2z" fill="none" stroke="#2b2b2b" stroke-width=".6" stroke-linecap="butt" stroke-miterlimit="1.4"/>
    <path d="M254 360c-1 1-4 4 3 6 3 1 8 1 11-2l1 2c-5 6-18 3-19-3 0-2 1-4 3-5l1 2z" fill="#5a5a5a" fill-rule="nonzero"/>
    <clipPath id="d">
      <path d="M254 360c-1 1-4 4 3 6 3 1 8 1 11-2l1 2c-5 6-18 3-19-3 0-2 1-4 3-5l1 2z" clip-rule="nonzero"/>
    </clipPath>
    <g clip-path="url(#d)">
      <path d="M253 360c-2 4-1 6 3 7 6 2 11-1 11-1v-4c-1 0-13-7-14-2z" fill="#d0d0d0"/>
    </g>
    <path d="M254 360c-1 1-4 4 3 6 3 1 8 1 11-2l1 2c-5 6-18 3-19-3 0-2 1-4 3-5l1 2z" fill="none" stroke="#2b2b2b" stroke-width=".6" stroke-linecap="butt" stroke-miterlimit="1.4"/>
    <path d="M250 357c2-1 3 0 4 1s0 3-1 4l-3-1v-4z" fill="#5a5a5a"/>
    <clipPath id="e">
      <path d="M250 357c2-1 3 0 4 1s0 3-1 4l-3-1v-4z"/>
    </clipPath>
    <g clip-path="url(#e)">
      <path d="M252 358l-1 1 2 1-1-2z" fill="#d0d0d0"/>
    </g>
    <path d="M250 357c2-1 3 0 4 1s0 3-1 4l-3-1v-4z" fill="none" stroke="#2b2b2b" stroke-width=".6" stroke-linecap="butt"/>
    <path d="M265 335c0 3 0 7-3 9 3 2 7 6 6 11-4 4-4 9-3 14l11-4c2-4 4-8 3-14l-9-13c-3-3-4-3-5-3z" fill="#d0d0d0"/>
    <clipPath id="f">
      <path d="M265 335c0 3 0 7-3 9 3 2 7 6 6 11-4 4-4 9-3 14l11-4c2-4 4-8 3-14l-9-13c-3-3-4-3-5-3z"/>
    </clipPath>
    <g clip-path="url(#f)">
      <path d="M275 345c-1 8 2 11-1 14s-8 2-9 5c-2 3-2 7-2 7h24l-2-21s-9-14-10-5z" fill="#5a5a5a"/>
    </g>
    <path d="M265 335c0 3 0 7-3 9 3 2 7 6 6 11-4 4-4 9-3 14l11-4c2-4 4-8 3-14l-9-13c-3-3-4-3-5-3z" fill="none" stroke="#2b2b2b" stroke-width="1.3" stroke-linecap="butt"/>
  </g>
  <g>
    <path d="M280 100c-1 0-77 20-98 13-7-3 12 11 19 22h3c10-1 24-8 30-9 55-7 97-3 129 12l30-14c17-7 27-25 15-27-11-2-125 2-128 3z" fill="#0c0c0c"/>
  </g>
  <path d="M159 168s7-44 43-49c36-6 82-12 111-8l41 8s40 9 71 35c12 10 21 30 21 42 0 11-8 40-20 47-12 8-35 8-40 5-8-7-22-13-30-12-7 0-34 14-42 16s-25 7-47 9c-26 2-58-11-67-16-10-5-28-31-28-31l-18-8 5-38zm58 18c30-18 98-5 109 8 0 0-6 17-26 27-35 20-89-23-83-35zm218-5c-14-13-57 0-64 15 0 0 17 20 33 20 32 0 34-27 31-35z" fill="#0c0c0c"/>
</svg>
